<?xml version="1.0" encoding="utf-8"?>
<!-- Generator: Adobe Illustrator 18.0.0, SVG Export Plug-In . SVG Version: 6.00 Build 0)  -->
<!DOCTYPE svg PUBLIC "-//W3C//DTD SVG 1.0//EN" "http://www.w3.org/TR/2001/REC-SVG-20010904/DTD/svg10.dtd">
<svg version="1.0" xmlns="http://www.w3.org/2000/svg" xmlns:xlink="http://www.w3.org/1999/xlink" x="0px" y="0px"
	 viewBox="0 0 817.5 578.2" enable-background="new 0 0 817.5 578.2" xml:space="preserve">
<g id="Layer_2">
	<g transform="matrix(0.999067,0,0,0.999067,0,21.3683)">
		
			<path vector-effect="none" fill="#E9E9E9" stroke="#FFFFFF" stroke-linecap="square" stroke-linejoin="bevel" stroke-dasharray="4,4" d="
			M152.3,265l-0.8-1.9l-1.7-2.9l-0.7-0.4l-2.2-2.9l-5.1-4.1l-2.9-1.4l-0.9,0.2l-6.8-2.9l-3.1-0.5l-2.1,0.1l-2.6,1l-1,1.3l1.1,1.8
			l-1.1,2.3l1,0.9l-1.4,1.2l-1-0.1l-0.4-1.3l-2.5-0.6l-0.3-2.1l-3.2-2.7l-0.5-1.3l-1.9-2.1l4-0.5l1.6-0.6l2.8-0.4l4.7-1.7l11.9-5
			l11.7-5.8l1.9,3.8l2.2,5.2l1.1,2l0,1.3l-1.5,13.5L152.3,265"/>
		
			<path vector-effect="none" fill="#E9E9E9" stroke="#FFFFFF" stroke-linecap="square" stroke-linejoin="bevel" stroke-dasharray="4,4" d="
			M426.7,135.2l-8.1-13.8l-13.9-0.8l-2.8,0l-11.4-6.4l-14.6-0.1l-1,0.1l-14.3,0l-44.3-0.1l-0.1,7.9l0,0l-6.9-7.9l-1.4-1.4
			l-16.7-18.6l-1,0.1l-4.1,2.8l-4.9,4.4l-0.9,1.5l-3.5,1.3l-4,2.1l-9.9,4.7L261,112l-3.2,1.6l0,0.2h-0.3l-2.5,3.9l-5.8,4.6l-3.3,1.9
			l0,2.7l-1.5,1.8l-5.5,1l-0.9,0.5l-2.2,1.2l-0.5,0.2l-6.6,0L226,131l-3.6,0.7l-3.2-0.1l-1.2,0.1l0.9-4.2l0-4.3l0.4-2.7l0.4-6.6
			l-0.2-2.9l0.8-4.5l1.1-0.8l1.4,1.3l2.5-3l1.6-1.3l-1.1-1.1l0.2-2.1l-0.4-3.4l0.1-1.8l1.2-2.2l1.6-1.4l1.8-0.2l0.9,0.7l1.5-0.3
			l1.5-1.9l0.5-2.2l1.6-2.3l-1.5-2.3l0.4-2.5l1.5-1.9l0.6,0l1.4-1.8l-0.2-4.1l0.6-1.5l1.3-0.2l0.6-1l0.2-4.4l0.8-1.6l1.5-1l0-2.8
			l1.1-1.3l2.9-1l3.7,1.3l2.3-0.3l1.7-1l1.4-1.7l1.5-0.7l2.9-0.5l1.4,0.8l0.3,2.9l2.2,1.4l2.7,3.3l1.9-0.3l2.8-2.3l1.8,0.4l2.2,1.8
			l2.1-0.7l3.2-2.4l2.4-0.4l2.5,0.2l0.8,0.5l0,1.5l1,0.3l2.1-1.3l2.2-0.2l2.3,1.3l2.3,0.6l3.5,0.2l2.5,1.7l1.6-0.6l4.7-0.5l1.7-0.9
			l0.4-1.1l-0.5-1.7l1.2-0.9l2.4-0.2l2,1.4l2,0.4l4.3-1l0.7-0.7l-1.1-1.9l0.4-2.1l1.1-0.8l2.4-0.7l1.1-1.3l1.4,0l2.1,1.9l0.7,2.7
			l1.9,1.3l1.8,0.2l2.6-1.5l0.9-1l3.1-0.2l1.5-1.3l2.4-0.2l2.4,0.8l1.6,0l1.3,1.3l1.4,0.6l2.9-1.8l2.2-0.9l1.5-1.4l2.7,1.1l2.4,0.3
			l2.7-2.2l0.7-1.3l-1.2-2.1l-2-0.3l-0.6-0.9l0.4-1.5l2.2-2.5l1.6,0.4l1,1.1l0.5,1.9l1.2,1.8l2,0l3.1-1.3l0.7-1.3l0.1-3.4l1.8-0.9
			l3,1.5l-0.3,2.8l1.2,1.8l1,0.1l1.9-1.8L386,46l1.5,0.1l1-2.7l1.1-0.1l1.4,2.4l3.8,0l0.3-1.4l1.3,0l0.9,1.3l1.3,0.9l1.3-2.1
			l1.1-0.4l1.2,1l0,1.7l2.3-0.3l0.5-1.5l1.2,0.8l2.1-0.7l5.2-0.4l0.3,1.3l-1.2,0.6l1.1,1.4l1.2-1.1l1.6,0l1.1,1.1l1-0.6l4.1,0.2
			l0.6-2.3l4.9,3.1l2.4-1.3l3,0.2l1.2-1.9l1.8-1.1l1.5,2.1l2-0.4l1.9,0.4l3.1-0.9l1,1.1l-0.1,3.7l-0.5,2.6l0.9,0.7l2.7-0.6l1.5-1.5
			l1.6,1.1l-0.7,2.8l1.2,2.3l1.2-1.5l1.5-0.4l1.8,0.3l2.2,1.6l0,2.1l3.2,1.5l1.5,2l1,0.3l0.7,2.1l2.5,1l0.6,1.6l3.8,2.6l0.4,0.9
			l2.6,2.5l1.6,2.9l3.1-0.3l1.1,0.9l1.7,0.4l1.4,2.3l-0.4,0.9l-2.1-0.5l-0.8,0.4l0.4,3.4l1.8-0.2l1.7,0.9l-1.5,1.2l-0.6,1.4
			l-0.2,2.4l3.2-1.3l2.4,0.9l0.5,3l1.8,0.7l1.5-0.7l1.4,1.6l-1.1,2.2l1.3,3.4l0.9,0.2l1.3,2l1.9-2.4l3.6-1.8l1.6,0.4l2.6-0.8
			l3.6-3.2l1-0.2l0.6,1.5l-1.8,2.1l0.2,1.3l-0.6,1.4L507,109l-10.4,4.1l-0.9,2.1l-5.5,6.1l-5.7,5.8l-4.1,4.8l-13.6,14.1l-7.5,7.6
			l-2.6,2.7l-2.6,5.2l0.8,2.7l-1.7,2l-1.5,0.3l-0.8-0.8l-1.7-0.4l-3.5,3.1l-9.2,0.3l0.7-2.4l-0.6-3.4l1.5-4.2l-0.2-1.8l0.3-1.9
			L426.7,135.2"/>
		
			<path vector-effect="none" fill="#E9E9E9" stroke="#FFFFFF" stroke-linecap="square" stroke-linejoin="bevel" stroke-dasharray="4,4" d="
			M190.3,322.5l-0.9-3.7l-1.1-3.3l-2.3-2.5l-3.2-2.5l-0.9-1.7l-1.4-0.6l0.1-3.2l-1.3-3.3l-1.9-1.9l-1.6-2.2l-1.4-0.5l-0.3-2.7
			l0.3-2.4l-0.8-2.4l-2.7-4.3l-4.9-3.8l-2-1.1l-2.9-0.7l-0.4-1.6l-0.9-0.3l-0.8-1.6l-1.2-1.1l0-1.3l-2-4.7l-2.9-2.4l-0.5-1.4
			l0.6-6.5l1.5-13.5l0-1.3l-1.1-2l-2.2-5.2l-1.9-3.8l4.8-2.6l1.4-3.1l1.8-2.6l7.4-8.4l1.6-1.5l3.7-4.4l4.2-4.8l3.9-5.4l1.9-2.2
			l3.6-5.1l4.5-7.1l9.7,4.1l1.3,1.8l1.7,1.1l1.8,2l3.5,2.4l0.5,1.8l1.1,0.7l0.7,1.9l-0.3,4.2l2.2-2.7l1.8-1.7l1.1-1.6l1.8-3.7
			l2.1-3.8l1.2-0.1l0.1-1.7l1.5-2.3l3.7-4.1l1.5-1.3l3.7,3.7l5.9-0.1l0.9,0.6l1.8,3.1l-1.2,2.4l2.4,2.3l1.2-0.2l0.5-2.1l1-0.3
			l1.5,0.8l1.4,3.2l-0.3,2.4l0.5,2.3l1.6,2.1l1.2,2.4l-0.1,2.3l0.5,1.2l0.5,0.4l2,1.3l1.4,1.4l-0.1,4.1l0.9,3.4l0.9,2.5l0.2,3.8
			l-3.9,1.1l-1.5-0.1l-1.8-2.4l-2.8-1.4l-5-1.3l-2.9-1.3l-3.8-1l-4.8-0.5l-3.2,0.6l-1.6,0.6l-2.3,1.5l-2.4,0.4l-5.7,2.1l-4.1,0.9
			l-4.1,1.1l-3.5,3.1l1.9,1.7l1.5,2.7l1.3,1l1.5,1.9l0.2,2.5l-2.1,1.7l-0.3,1.2l2.6,1.9l1.6,2.4l0.4,3.4l-0.3,6.3l-1.5,2.2l0,2.4
			l3.3,2.9l2.5,0.9l4.2-0.2l0.7,2.4l-1.3,3.9l-0.5,3l-1.3,2.7l-5,4.2l-2.4,0.9l-1.8,2l-3.9,0.3l-0.9,0.4l-2.6,2.9l-0.7,5.9l0.3,2.9
			l-0.7,2.3l-0.5,0.8l-2.7,3.5l-0.4,2.4l1.3,1.8l1.3,0.4l0,1.4l-1,1.5l-3.1,2l1,1.9l-1.9,0.9l-0.9-0.4l-1.3,1.9l4.1,4.9l-0.1,1.5
			l-1.2-0.2L190.3,322.5"/>
		
			<path vector-effect="none" fill="#E9E9E9" stroke="#FFFFFF" stroke-linecap="square" stroke-linejoin="bevel" stroke-dasharray="4,4" d="
			M415.3,272.3l0.2-4.2l-20.3-6.1l-3-0.8l3-2.4l2.4-4.1l1.2-6.6l2.4-1.4l5.6-7.1l-0.2-1.8l-3.2-5.9l-4.1-12.5l3.2-2.5l4.9-0.5
			l15.6-2.7l3.2-0.7l-5.1-3.8l7.9-28.2l-1.5,1.5l-7.6,1.5l-2.4-0.3l-6.4-3.3l-3.9-1.2l-4.9-1.8l-1.2-1.7l1.5-4.5v-5.5l1-18.2
			l9.7-2.7l8.9-6.6l4.5-3.1l11.6,19.8l-0.3,1.9l0.2,1.8l-1.5,4.2l0.6,3.4l-0.7,2.4l9.2-0.3l3.5-3.1l1.7,0.4l0.8,0.8l1.5-0.3l1.7-2
			l-0.8-2.7l2.6-5.2l2.6-2.7l7.5-7.6l13.6-14.1l4.1-4.8l5.7-5.8l5.5-6.1l0.9-2.1L507,109l1.8-8.3l0.6-1.4l1.1,1.9l2.3,2.3l1.3,0
			l1.8-1.5l2.6,0.3l5.3-2.7l2-0.4l4,1.1l0.8-0.1l2.8-2.3l1.3,1.8l-2.3,0.6l-1.3,1l-0.5,1.6l0.5,1.3l2.4,0.8l1-2l1.3-1.1l0.8,0.1
			l1.3,2.6l5.5,2.3l1.3,0.4l0.7,1.3l-0.4,1.6l0.2,2l1.2,1.4l-0.1,2.8l1.1,2.1l1.5,1.7l2.8,1.3l-0.2,1.4l-1.9,1.8l1.3,1.4l2.2,1.4
			l0.4,1.2l-0.4,3.4l1.4,2.1l1.7,1.1l0,1.6l-1.9-0.2l-0.3,1.5l2.4,2.5l2.7,1.9l3.7,3.8l-0.9,1.9l-1.3,0.6l-2.1-0.5l-0.5,1.5l2.9,5.1
			l1.1,0.3l1.7-1.7l2.2,0l4.1,2.3l5.1,2.1l-0.4,1.2l0.8,2.3l-1.1,2.1l-0.7,2.8l0.2,0.8l4.3,1.9l2,0.2l2.7-0.5l1.5-1.4l4.5-0.5
			l-0.4,1.3l0.4,1.7l-0.1,2.3l1.1,0.8l1.9-0.4l0.6,1.3l-1.7,1.5l-0.2,5.6l1.8,2.1l1.8,0.8l3.2,0.5l3.8,2.6l1.3,3.6l-1.9,2.7
			l-1.4-0.2l-1.3-1.3l-1.5,0.1l-0.6,1.3l0.8,1.2l2.5,1.4l1.1,1.3l0.5,1.6l1.1,0.1l1.9-1.5l1.7-0.2l1.4,0.8l0.8,2.3l-0.8,2.4l0.5,1.5
			l3.4,1.3l1.4,1l2.2,2.3l2.8,1.4l0.5,0.8l2.4,3.5l4.2,5.7l0.4,1.8l1.6,2.3l0.6,3.4l1.6,2.8l-1.1,3.1l-5.7,18.5l-7,9.9l-2.6,1
			l-5.2,2.4l-16,2.5l-9.2-2.3l-21.7-3.2l-11.1,8.8l-8,6.1l-6.3,5.1l-3.1,2.4l-12.4-0.3l-16.8-0.2l-5.1-0.1l-10.6-5.2l-5.4-2.5
			l-7.8-2.5l-10-3.5l-4.4-1.3l-4.6-1.7l-2-0.5l-0.6-1.2l-2.7-1.4l-0.6-1.4l-1.7-1.2l-2-3.8l-1.9,1.1l-1,0.1l-2,1.2l-2-0.2l-3.5,3.4
			l-3.7,4l-7.8,2.9l-2,0.3L415.3,272.3"/>
		
			<path vector-effect="none" fill="#E9E9E9" stroke="#FFFFFF" stroke-linecap="square" stroke-linejoin="bevel" stroke-dasharray="4,4" d="
			M217,263.2l-4.2,0.2l-2.5-0.9l-3.3-2.9l0-2.4l1.5-2.2l0.3-6.3l-0.4-3.4l-1.6-2.4l-2.6-1.9l0.3-1.2l2.1-1.7l-0.2-2.5l-1.5-1.9
			l-1.3-1l-1.5-2.7l-1.9-1.7l3.5-3.1l4.1-1.1l4.1-0.9l5.7-2.1l2.4-0.4l2.3-1.5l1.6-0.6l3.2-0.6l4.8,0.5l3.8,1l2.9,1.3l5,1.3l2.8,1.4
			l1.8,2.4l1.5,0.1l3.9-1.1l4,0.2l2.9,0.6l3.6-0.6l8.2,0.7l0.8-1.7l6.7-0.5l2.6-1l0.8-1.2l9.1,0.1l-0.2,1.7l0.4,1.4l2,1.6l1.2,2.6
			l2.1,1.5l3.1,1.4l4.1,3l1.6,0.7l3.7,0.3l2.2,0.4l1.7,0.9l5.3,3.4l4.4-1.6l1.3-0.2l2.2,0.5l3.2,1.2l0.2,0.7l-1.4,10.1l-1.3,10.1
			l-1.8-1l-7.8-1.8l-4.6-2.3l-5.6-3.9l-1.2,0.2l-0.7,1.1l-1.9,0.9l-3.2-1.1l-4.8-5.5l-1.1,0.9l-2,0.7l-0.9,4.5l0.9,6.7l-0.3,1.9
			l-1.3,2.8l-3.4,2.9l-2.8,1.6l-2.9,0.8l-4.1,0.7l-3.4,0l-3.3,1.8l0-2.2l-3.8-0.7l-7.6-0.8l-3.5,0l-2.4-1.1l-2.2-0.6l-1.3-0.9
			l-3.1-0.2l-4.4-0.7l-5.4,0.7l-1.7-0.1l-2.2-3.3l-8.1,0.8l-3.4-0.1l-1.7,0.4l-2.2-1.4L217,263.2"/>
		
			<path vector-effect="none" fill="#E9E9E9" stroke="#FFFFFF" stroke-linecap="square" stroke-linejoin="bevel" stroke-dasharray="4,4" d="
			M329.5,251.3l1.4-10.1l-0.2-0.7l-3.2-1.2l-2.2-0.5l-1.3,0.2l-4.4,1.6l-5.3-3.4l-1.7-0.9l-2.2-0.4l-3.7-0.3l-1.6-0.7l-4.1-3
			l-3.1-1.4l-2.1-1.5l-1.2-2.6l-2-1.6l-0.4-1.4l0.2-1.7l-9.1-0.1l-0.8,1.2l-2.6,1l-6.7,0.5l-0.8,1.7l-8.2-0.7l-3.6,0.6l-2.9-0.6
			l-4-0.2l-0.2-3.8l-0.9-2.5l-0.9-3.4l0.1-4.1l-1.4-1.4l-2-1.3l-0.5-0.4l-0.5-1.2l0.1-2.3l-1.2-2.4l-1.6-2.1l-0.5-2.3l0.3-2.4
			l-1.4-3.2l-1.5-0.8l-1,0.3l-0.5,2.1l-1.2,0.2l-2.4-2.3l1.2-2.4l-1.8-3.1l-0.9-0.6l-5.9,0.1l-3.7-3.7l-1.5,1.3l-3.7,4.1l-1.5,2.3
			l-0.1,1.7l-1.2,0.1l-2.1,3.8l-1.8,3.7l-1.1,1.6l-1.8,1.7l-2.2,2.7l0.3-4.2l-0.7-1.9l-1.1-0.7l-0.5-1.8l-3.5-2.4l-1.8-2l-1.7-1.1
			l-1.3-1.8l-9.7-4.1l3.4-5.4l3-5.4l9.4-13.7l4.6-7l3.9-6.7l3.9-8.5l1.9-7.2l1.3-0.1l3.2,0.1l3.6-0.7l2.7,0.6l6.6,0l0.5-0.2l2.2-1.2
			l0.9-0.5l5.5-1l1.5-1.8l0-2.7l3.3-1.9l5.8-4.6l2.5-3.9h0.3l0-0.2l3.2-1.6l1.8-0.9l9.9-4.7l4-2.1l3.5-1.3l0.9-1.5l4.9-4.4l4.1-2.8
			l1-0.1l16.7,18.6l1.4,1.4l6.9,7.9l0,0l0.1-7.9l44.3,0.1l14.3,0l1-0.1l14.6,0.1l11.4,6.4l2.8,0l13.9,0.8l8.1,13.8l-4.5,3.1
			l-8.9,6.6l-9.7,2.7l-1,18.2v5.5l-1.5,4.5l1.2,1.7l4.9,1.8l3.9,1.2l6.4,3.3l2.4,0.3l7.6-1.5l1.5-1.5l-7.9,28.2l5.1,3.8l-3.2,0.7
			l-15.6,2.7l-4.9,0.5l-3.2,2.5l4.1,12.5l3.2,5.9l0.2,1.8l-5.6,7.1l-2.4,1.4l-1.2,6.6l-2.4,4.1l-3,2.4l-6.4-7.7l-8.5,5.4l-2.7,1.9
			l-0.7,2.5l-6.5-1l-15.8-3.1l-7.6-1.4l-3.8-2.3L329.5,251.3"/>
		
			<path vector-effect="none" fill="#E9E9E9" stroke="#FFFFFF" stroke-linecap="square" stroke-linejoin="bevel" stroke-dasharray="4,4" d="
			M282.3,418.1l-0.2,2.4l-0.8,0l-2.4,1.7l-1,1.4l0.8,2.3l2.6,0.2l0.8,0.5l-0.5,2l-1.4,1.5l-1.1,1.9l-0.3,2.4l-1.7,3.4l-1.9,0.9
			l-1,2.9l-1.3,0.4l-0.4,2.2l1.4,3.8l-0.6,2l0.6,1.5l-0.5,1.1l-2.3,1.9l-0.4,1.4l1.5,3.3l-0.8,2.1l-2.5,1.7l0.3,2.2l0.9,0.9l-1,2.9
			l-0.1,2.6l0.4,1.3l1.9,0l1.4,1l1.7,2.4l1.2,3.4l-0.9,1.6l1.2,2.5l-0.1,1.3l0.8,1.4l2.4,1.4l0.4,3.5l-1,0.6l0.6,1.5l1.8-0.6
			l1.6,0.5l0.3,1.9l-6.8,0.8l-9-3.2l-3.2,0.1l-9.9,2.3l-4.2-1.3l-7.1,3.1l-4.3,2.3l-3.3,2l-3.5,1.7l-0.6,1.4l-3.9-0.4l-7,0.8
			l-3.1,0.8l-3.3-1.1l-6.7,1.4l-3.1-1.3l-5.4,0l-3.4,2.3l-1.4-2l-0.4-2l-1.6-1.7l-2.2-1.7l-1.8-5.8l-0.2-2.9l1.3-3.4l1.3-2l1.8-1.4
			l-0.2-1.7l-1.3-0.8l0.2-1.9l-1.1-6.6l-0.1-2.8l0.7-2.3l-1.4-0.7l0.3-3.3l-0.1-2.1l-0.6-1.8l0.8-5.5l1.1-4.4l0.6-1.8l0.8-5.1
			l0.7-1.6l1.1-7.4l-0.2-4l-0.6-2l2-1.5l-0.6-1.3l-0.2-2.3l2.8-1.2l0.7-1.8l-0.8-1.2l2.3-1.7l14.5,0.4l1.7-0.1l15,0.2l3.9-0.1
			l14.7,0.3l13-0.2l9.6,0.3l5.2-0.6L282.3,418.1"/>
		
			<path vector-effect="none" fill="#E9E9E9" stroke="#FFFFFF" stroke-linecap="square" stroke-linejoin="bevel" stroke-dasharray="4,4" d="
			M282.7,495.2l-0.3-1.9l-1.6-0.5l-1.8,0.6l-0.6-1.5l1-0.6l-0.4-3.5l-2.4-1.4l-0.8-1.4l0.1-1.3l-1.2-2.5l0.9-1.6l-1.2-3.4l-1.7-2.4
			l-1.4-1l-1.9,0l-0.4-1.3l0.1-2.6l1-2.9l-0.9-0.9l-0.3-2.2l2.5-1.7l0.8-2.1l-1.5-3.3l0.4-1.4l2.3-1.9l0.5-1.1l-0.6-1.5l0.6-2
			l-1.4-3.8l0.4-2.2l1.3-0.4l1-2.9l1.9-0.9l1.7-3.4l0.3-2.4l1.1-1.9l1.4-1.5l0.5-2l-0.8-0.5l-2.6-0.2l-0.8-2.3l1-1.4l2.4-1.7l0.8,0
			l0.2-2.4l9.6,0.2l0-5.5l-0.2-5.6l0-7.5l0.3-1l7.2,0l2.1-0.4l3.2-1.8l5.6,1.8l2,0.4l2.9,0l2.7-0.9l4.5-3.7l2.1-0.1l5.2,2.2l0.7,0
			l6.2,2.1l4.3-0.5l0,7l-1.7,3l0.4,4.9l2.1,2l2,1l1.5-0.1l4.5,1.7l0,3.2l1.6,2.7l1.5,4.9l-0.4,2.8l1.9,1l2.7,1l2.7,1.9l0.4,2
			l-1.1,2.1l0.9,2.9l4.9,5.5l-0.4,1.9l0.1,6.4l-2.4,4l0.1,1.4l-1.9,3.1l1.1,2.4l0.3,1.8l2.1,1.7l-4.3,0l-2.1,0.5l-5.9,2.4l-3.3,2.1
			l-4,1.8l-3.1,1.1l-3.4,3.7l-3.7,2.9l-2.6,1.7l-6.4,2.7l-11.3,5l-2.3,1.3l-6.7,3l-7-1.1l-12.5-1.5L282.7,495.2"/>
		
			<path vector-effect="none" fill="#E9E9E9" stroke="#FFFFFF" stroke-linecap="square" stroke-linejoin="bevel" stroke-dasharray="4,4" d="
			M363.6,470l-2.1-1.7l-0.3-1.8l-1.1-2.4l1.9-3.1l-0.1-1.4l2.4-4l-0.1-6.4l0.4-1.9l-4.9-5.5l-0.9-2.9l1.1-2.1l-0.4-2l-2.7-1.9
			l-2.7-1l-1.9-1l0.4-2.8l-1.5-4.9l-1.6-2.7l0-3.2l-4.5-1.7l-1.5,0.1l-2-1l-2.1-2l-0.4-4.9l1.7-3l0-7l4.2-0.7l2.9-1.8l4.5-3.9
			l0.8-1.5l1.3-4.6l1.2-5.7l1.4-0.8l4.2-3.7l0.4-1.2l5.4-1.9l1,2.9l1.3,2.1l1.8,2l5.4,4.7l4,2.1l3.6,1.7l2.8,0.9l5.2,0.3l2.1,2
			l1.6,0.9l2.8,0.4l2.8-0.3l1.6,3l1.9,1.9l5.8,2.9l2.4,0.4l4.1-0.3l3.5-1.7l2.4,3.2l4,2.5l2.9,0.5l3.2,0l2.2,3.1l3.5,2.5l1.5,0.8
			l3.3,1.1l1,0l5.2-1l1.2,0.1l2.3-0.6l1.3,1.5l1.4,0.9l2.6,0.1l3.6-1.2l1.6,0.8l2.7,0.1l2.4-2.2l0.4-1.3l0-2.7l4.4-0.9l0.9-0.4
			l3.3,0.3l3-0.3l5.6-3.3l3.5,0.5l2.4,0.1l3.6-0.7l2.2-1.2l2-2.1l2-3.5l0.8-3.1l0-2.7l-0.6-1l-1.9-1.2l-2.2-4.1l-2.4-1.4l3,0.8
			l0-1.6l1.1-3l1.7,0.4l1.9-0.1l-1.3,2.6l0.1,1.5l-1,2.4l0.2,1.3l1.6,0.5l2.4-2l2.5,0.6l2.8,1.5l-1.7,1.7l-2.5,1.7l0,1l0.9,2.2
			l-1.1,1.6l-1.6,1.4l0.8,0.5l2.5,0.1l5.2-1.4l1.9,0l-0.8,1.6l-2.2,2.7l1.1,1l2.2-1l0.8,1l-1.3,2.7l-1.2,1l0,1l1.1,1.4l2.8-0.5
			l1.2,0.6l-0.4,2l0.2,1.4l1.6,0.3l1.4-0.6l0.4,2l0.9,0.9l0.1,1.2l-0.5,2.4l-0.9,1.4l0.5,1.8l-0.5,2.7l1.8,0.7l0,1.5l1.7,1.6
			l0.7,1.7l0,0l-0.1,0.1l0,0.1l1.1,1.7l4,3l-0.4,2.3l0.3,0.8l1.9-1.2l1.3,1.8l-1,1.1l0.7,0.9l-0.6,3.7l1.8,0.1l-0.7,1.7l0,1.9
			l2.3,1.4l1.6,0.1l-0.1,3l1.4,2.1L538,454l-1.3,0.7l0.6,2l1.2,0l-0.4,1.5l0.7,2.4l-0.4,0.6l0.4,2.2l-0.4,3.7l-1.3,2.7l-1.2,0.9
			l-1.6-0.2l-28.1,0.1l-24.7,0.2l-11.4,0l-16.4-0.4l-24-0.1l-13.4,0.1l-11.4,0.2l-11.5,0l-16.2-0.4l-0.9-0.4L363.6,470"/>
		
			<path vector-effect="none" fill="#E9E9E9" stroke="#FFFFFF" stroke-linecap="square" stroke-linejoin="bevel" stroke-dasharray="4,4" d="
			M574.3,474.1l0.7-4.1l2.8-2.5l-1.6-2l-1.3-4.7l0-1.5l0.9-1.5l-0.1-1.6l1.2-0.4l-0.5-1.6l-2.3,0l-2.6-0.8l-0.3-1.2l0.8-1.4
			l-2.9-1.6l0.3-1.8l1.4-0.8l1.4-1.6l-0.4-1.9l-1.8-1.6l-0.3-1.2l-1.5-1.5l-1.3,0.3l-0.4-1.3l-2.4-3l-1.9-1l2.8-1.9l-0.3-1.1
			l0.7-0.9l2.4-0.4l0.9-1l1.2,1.7l2.5-0.6l3.5,1.4l1.5,1.3l0.9-0.3l1.4-2.3l1.5-1.3l0.7,0.7l2.1,0.1l1.2-1.5l3.9-1l0.9,1l1.7-1.2
			l1.6,1.6l1.3,0.2l1,2l1.4-0.6l3.5,2.3l1.9,2.1l1.1-1l1.9,2.3l0.8-3.6l3.5-0.9l0.4-1.7l1.6-0.4l-0.1-1.9l1.5-0.6l1.9,0.9l1.1-0.4
			l-0.1-1.9l2-0.1l0.3-1.3l1.1-1.5l1.4-0.9l-0.3-2l0.9-2.9l1.4-0.9l1.6-0.1l0.7-1.5l2.7,0.6l1.1-0.7l2.8-0.7l1.4,1.9l2.4,0.1
			l3.2-1.5l0.8,0.2l0.1,0.1l1.4-1.3l0.7-2.3l1.3-1.5l0.6-1.4l1.9-1.4l1.7-0.5l0.5-1.4l1.1,0.4l3-1.2l2.9,1.8l1.2,1.8l1.4-0.3
			l0.1-1.6l1.3-1.8l0.4-2.7l2,0.4l3,0.2l2.9-1.1l1-1.8l-0.6-0.6l-3.6-5.3l-0.1-2.3l1.2-1.3l0.2-2.4l0.5-1.2l2.1,0.7l6.4,3.7l1.4,0.3
			l1.7,2.5l1,0.1l1.7,1.6l3.7,0.7l1.8,1.2l2.7-1.5l0,2.6l0.4,0.6l-0.8,1.6l0.6,1.5l1.7,0l0.8-1.5l2-0.4l2.5-2.4l0.8-1.5l1.8,0.1
			l1.4-0.9l1.2-0.1l2.7-1.3l1.6,0.5l1.2,1.9l1.5,1l0.8,1.7l1.1,0.5l-0.4,1.9l0.8,0.6l3-0.3l0.5-2.2l0.7-0.6l1.7-0.1l1-2.9l1.9-2.9
			l-0.4-1.7l1.7-1.1l2.8,0.3l0.8,1l0.1,1.4l2.9,0.2l2-0.7l2.2,0l0.1,1.4l-1.2,1.5l2,0.6l2.5-0.4l0.1,3.4l0.7,1.1l-0.3,1.4l1.3,0.3
			l0.8,1.1l3,0.8l0,1.2l2,2.5l-1.7,2.1l-0.2,2.3l0.5,1.2l3.4,0.4l0.7,1.3l-0.6,1.5l-1.3,1.2l0.3,1.3l1.4,0.3l0.7,2.6l1.6,1l0.8,1.4
			l3.2,0l1.6,1.2l0.2,1.4l-1,1.2l1.6,2.3l1.1,0.7l-0.5,1.5l1.5,0.5l0,1.5l-1.6,0.7l1.4,2.3l1.3,1l1.1-1.2l-0.4-1.7l1.9,0.1l0.9,1.2
			l0.2,2.6l0.8,1.1l-0.2,1l-4.2,1l-1.3,1.1l1.4,1.3l-1.3,1.2l-0.4,1.5l1,1.5l-1.5,1.8l0.9,0.9l0,1.2l2-0.2l-0.6,1.8l0.7,0.6l-0.1,3
			l-0.3,1.2l1,1.6l-0.9,2.6l-3.7-0.1l-0.9,3.4l-1.7,2.4l0.5,1.3l2.3,0l0.7,1l0.7,3.1l-1.4,0.9l0.3,1.5l1.7,1.3l-1.8,2.6l-2-0.2
			l-0.7,2.2l1.4-0.3l0.7,0.8l0.2,1.7l1.4,0.5l0.7-2.3l1.9,0.7l-0.3,1.4l1.3,0.9l-0.4,2.5l0.6,0.8l1.1-2.6l1.3,1.7l-0.6,1.1l1,1.1
			l-1.3,1.9l-1,0.2l0.9,2.1l-1,1.8l-2.5,0l-1.8-1.8l-2-0.7l-3.4-0.2l-0.9-0.7l-12.2,1.3l-1.1,0.9l-1.7,0.3l-1.5-0.7l-3.9,1l-2.3,2.1
			l-1.3,0.6l-1.2-0.2l-1.5,1.3l-4.1,0.6l-0.9-1l-3.1-1l-2.8,0.2l-1.4,0.8l-1.9-1.7l-3-1.5l-0.9-2.4l-2.3,1.3l-4.3,2.9l-5.1,1.2
			l-2.9-2.6l-2.8,0l-2.3,0.3l-2.9,1.3l-1.9,2.8l-4.1,2.1l-3.3,1.3l-2.3-0.4l-1.6,1l-0.9-0.4l-4.8,1.8l-3.3,1.7l-3.4,1.5l-1-3.1
			l-0.9-0.6l-1.8-3.6l-1.5-1.1l-2.6-0.1l-1.8-1.3l-4.9-1l-2.4,0.4l-2,2.3l-2.4,1.6l-0.9,0.1l-1.9-3.1l-0.1-1.3l-1.4,0.5l-1.4-1.3
			l0-0.9l-1.6-1.1l-4-0.6l-10.5,0.8l1.1-3.6l-2-0.6l-2-1.3l-2.5,0.7l-1.2-1.2l-2-0.5l0.9-1.5l-0.8-0.9l-3.6-1.6l-0.3-2l-1.7-0.3
			l-4.9,1.5l0.2,3.3l-0.5,3.2l-2,0.2l-0.8,0.9l-2.2-0.5l-0.5-0.7l-3-0.3l-2.4,0.2l-1.5-1l0.1-3.9l-0.4-0.8l1.5-1.2l0.1-1.8l1.1-1.7
			l-0.2-2.5l-0.8-1.1l0.3-1.4l-2.8-2l-0.3,0.8l-2.4,0.9l-0.6-0.8L574.3,474.1"/>
		
			<path vector-effect="none" fill="#E9E9E9" stroke="#FFFFFF" stroke-linecap="square" stroke-linejoin="bevel" stroke-dasharray="4,4" d="
			M640,414l-0.1-0.1l-0.8-0.2l-3.2,1.5l-2.4-0.1l-1.4-1.9l-2.8,0.7l-1.1,0.7l-2.7-0.6l-0.7,1.5l-1.6,0.1l-1.4,0.9l-0.9,2.9l0.3,2
			l-1.4,0.9l-1.1,1.5l-0.3,1.3l-2,0.1l0.1,1.9l-1.1,0.4l-1.9-0.9l-1.5,0.6l0.1,1.9l-1.6,0.4l-0.4,1.7l-3.5,0.9l-0.8,3.6l-1.9-2.3
			l-1.1,1l-1.9-2.1l-3.5-2.3l-1.4,0.6l-1-2l-1.3-0.2l-1.6-1.6l-1.7,1.2l-0.9-1l-3.9,1l-1.2,1.5l-2.1-0.1l-0.7-0.7l-1.5,1.3l-1.4,2.3
			l-0.9,0.3l-1.5-1.3l-3.5-1.4l-2.5,0.6l-1.2-1.7l-0.9,1l-2.4,0.4l-0.7,0.9l0.3,1.1l-2.8,1.9l1.9,1l2.4,3l0.4,1.3l1.3-0.3l1.5,1.5
			l0.3,1.2l1.8,1.6l0.4,1.9l-1.4,1.6l-1.4,0.8l-0.3,1.8l2.9,1.6l-0.8,1.4l0.3,1.2l2.6,0.8l2.3,0l0.5,1.6l-1.2,0.4l0.1,1.6l-0.9,1.5
			l0,1.5l1.3,4.7l1.6,2L575,470l-0.7,4.1l-3.4-0.3l-3.1,0.6l-1.8-0.6l-0.5-1.1l-1.1,0.2l-0.9,1.1l-1.1-1l-3.1,0l-1.6-0.5l-0.6,1.2
			l-3.6,0.4l-2.1-1l-0.6-0.8l-14.5-1.6l1.2-0.9l1.3-2.7l0.4-3.7l-0.4-2.2l0.4-0.6l-0.7-2.4l0.4-1.5l-1.2,0l-0.6-2l1.3-0.7l1.6-2.1
			l-1.4-2.1l0.1-3l-1.6-0.1l-2.3-1.4l0-1.9l0.7-1.7l-1.8-0.1l0.6-3.7l-0.7-0.9l1-1.1l-1.3-1.8l-1.9,1.2l-0.3-0.8l0.4-2.3l-4-3
			l-1.1-1.7l0-0.1l0.1-0.1l0,0l-0.7-1.7l-1.7-1.6l0-1.5l-1.8-0.7l0.5-2.7l-0.5-1.8l0.9-1.4l0.5-2.4l-0.1-1.2l-0.9-0.9l-0.4-2
			l-1.4,0.6l-1.6-0.3l-0.2-1.4l0.4-2l-1.2-0.6l-2.8,0.5l-1.1-1.4l0-1l1.2-1l1.3-2.7l-0.8-1l-2.2,1l-1.1-1l2.2-2.7l0.8-1.6l-1.9,0
			l-5.2,1.4l-2.5-0.1l-0.8-0.5l1.6-1.4l1.1-1.6l-0.9-2.2l0-1l2.5-1.7l1.7-1.7l-2.8-1.5l-2.5-0.6l-2.4,2l-1.6-0.5l-0.2-1.3l1-2.4
			l-0.1-1.5l1.3-2.6l-1.9,0.1l-1.7-0.4l-1.1,3l0,1.6l-3-0.8l-0.9-1.1l-2-3.6l-1.3-0.8l-2.1-0.1l-4.2-1.8l-1.8-0.1l-1.6,0.5l-3.7,2.5
			l-2.8,0.1l-1.9-0.5l-1.8,0.1l-2.8,0.8l-2.1,1l-3.3,0.7l-2.7,1.6l-2.1,1.6l-2.6,2.9l-1.9-0.1l-3.9,0.9l-2.8,1.2l-3.1-1.3l-2.1-0.3
			l-2.3-1.9l-3.7-1.6l-1-1.6l-3.4-2.5l-0.2-2.3l-0.9-3l-1.5-2.3l-1.3-1.4l-4.8-2.8l-3.2-0.6l-3.4-0.2l-3.1,0.5l-3.6,2l-2.5,1.9
			l-1.5-0.1l-7.1-4l-0.5-4.1l-0.7-2.9l-1.7-3.2l-2.2-1.9l2.2-3.5l1.2-1.2l4.7-0.1l3.7-0.5l3-7.3l1.6-0.7l3.3-2.4l4.5-2.7l2.1-6.3
			l-1.3-9.7l1-5l-1.2-13l-4.7-4.5l0-1.2l1-16l0.4-7.1l5.6-1.3l2-0.3l7.8-2.9l3.7-4l3.5-3.4l2,0.2l2-1.2l1-0.1l1.9-1.1l2,3.8l1.7,1.2
			l0.6,1.4l2.7,1.4l0.6,1.2l2,0.5l4.6,1.7l4.4,1.3l10,3.5l7.8,2.5l5.4,2.5l10.6,5.2l5.1,0.1l16.8,0.2l12.4,0.3l3.1-2.4l6.3-5.1
			l8-6.1l11.1-8.8l21.7,3.2l9.2,2.3l16-2.5l5.2-2.4l2.6-1l7-9.9l5.7-18.5l1.1-3.1l-1.6-2.8l-0.6-3.4l-1.6-2.3l-0.4-1.8l-4.2-5.7
			l-2.4-3.5l0.3-1.5l1.3-1.1l1-0.1l5.3,2.4l1.6,1l4.6,4.5l6.3,1.8l2.4,1.7l1.1,1.4l0.4,1.5l0.7,5.3l0.4,1.1l-0.3,2.4l1.7,1.1
			l3.5,3.3l1.4,0.4l1.6,1.2l1.6,0.5l2.2-0.1l1.4,0.6l4.5,5l4.2,1.3l0.6,2.8l1.8,0.4l0.8,2.2l-0.4,1.2l1.2,0.9l1.9-0.1l2.5,1.7
			l-1.8,1.1l0.2,1l2.6,0.6l0.6,2.2l-0.6,1.6l-2.4,0.9l0.1,2.8l-1.1,1.4l-0.3,1.7l-2.3,0.3l-0.9,1.2l0.4,2.2l-0.7,1.6l0.3,2.3l2,1.1
			l-0.8,2l1.8,2.3l-1.3,1.8l0.2,1.8l2,1l1.1-0.5l1.6,1.7l2.5-0.2l0.4,1.3l1.2,0.5l1.4-0.7l1,1.3l-1,1.4l0.7,0.7l0.1,3.8l2,1.1
			l2.3,0.1l1,0.8l2,0.1l3,7.7l1,0.9l0.1,1.6l1.4,0.8l-0.2,3.9l-1.1,2.6l0.4,0.9l0.2,2.9l-1.4,0.2l0.2,2.4l-1.5,1.5l0,3.4l0.6,2
			l-0.5,1.6l1.9,1.1l0.2,0.9l6,4.4l-1,6.7l-0.5,0.6l-0.5,5.2l-2.4,1.4l-1.4,2.4l-5.2,4l-2.4,0.9l-1.2,0.9l0.5,1.4l2,2.5l0.9,1.9
			l0.3,1.8l-0.2,2l0.5,1.1l2.6,2.6l1.3,0.8l0.2,2.3l1.6,0.8l1.3,2.6l2,1.5l2,0.5l1.9,2.1l1.5,0.6l0.9,1.6l2.3,1.2l0.7,2.7l-1,1.5
			l-1.4,3.7l0,0.7l-2.7,1.3l-1.2,0.1l-1.4,0.9l-1.8-0.1l-0.8,1.5l-2.5,2.4l-2,0.4l-0.8,1.5l-1.7,0l-0.6-1.5l0.8-1.6l-0.4-0.6l0-2.6
			l-2.7,1.5l-1.8-1.2l-3.7-0.7l-1.7-1.6l-1-0.1l-1.7-2.5l-1.4-0.3l-6.4-3.7l-2.1-0.7l-0.5,1.2l-0.2,2.4l-1.2,1.3l0.1,2.3l3.6,5.3
			l0.6,0.6l-1,1.8l-2.9,1.1l-3-0.2l-2-0.4l-0.4,2.7l-1.3,1.8l-0.1,1.6l-1.4,0.3l-1.2-1.8l-2.9-1.8l-3,1.2l-1.1-0.4l-0.5,1.4
			l-1.7,0.5l-1.9,1.4l-0.6,1.4l-1.3,1.5l-0.7,2.3L640,414"/>
		
			<path vector-effect="none" fill="#E9E9E9" stroke="#FFFFFF" stroke-linecap="square" stroke-linejoin="bevel" stroke-dasharray="4,4" d="
			M333,356.5l-2.5-5.6l-0.6-0.7l-3.3-0.1l-3.5,0.4l-1.3-0.2l-2-1.4l-4.2-1.9l-1.3,0.6l-1.5,2.8l-1.7,2.1l-0.9,0.4l-2.2-1.5l-1.7-2.2
			l-2.1-1.8L303,347l-0.6-1.1l-0.4-2.6l1.7-1.7l1.1-2.3l0-0.9l-2.4-2.7l-5.4-3.3l-2.6-2.8l-0.2-2.4l-0.5-0.7l0-3.1l-2.3-0.5
			l-3.5-2.4l-2-3.4l1.3-0.7l-0.2-2.7l0.1-3.5l2.9-6.7l1.6-3.1l1.2-3l11.2-0.3l0.3-6.3l-0.9-4.8l-0.3-3l0.9-5.4l2.3-0.5l1.9,0.4
			l1-1.4l-1.4-0.5l-0.2-1.5l19.8-7.3l0.7-5.3l1.3-10.1l10.8,4.1l3.8,2.3l7.6,1.4l15.8,3.1l6.5,1l0.7-2.5l2.7-1.9l8.5-5.4l6.4,7.7
			l3,0.8l20.3,6.1l-0.2,4.2l-0.4,7.1l-1,16l0,1.2l4.7,4.5l1.2,13l-1,5l1.3,9.7l-2.1,6.3l-4.5,2.7l-3.3,2.4l-1.6,0.7l-3,7.3l-3.7,0.5
			l-4.7,0.1l-1.2,1.2l-2.2,3.5l-1.3-0.8l-3.6-1.6l-4.4-1l-2.7-0.1l-2.5,0.6l-2.2-0.7l-7.2-2.7l-4.5,1.7l-2,0.5l-9.7,6l-2.5,0
			l-3.4-2.9L345,352l-2.1-0.2l-2.3,0.3l-4.9,2.1L333,356.5"/>
		
			<path vector-effect="none" fill="#E9E9E9" stroke="#FFFFFF" stroke-linecap="square" stroke-linejoin="bevel" stroke-dasharray="4,4" d="
			M262,372.4l-17.8-0.2l-15.2,0l-6.9-0.2l-4.6-1.7l0.6,1.8l-4.3-0.1l-0.1-1.2l-1.3-0.3l-1.6-2.5l-4.2-3l-1.5-3.3l-0.7-2.2l0.7-3
			l-5.9-4.3l-0.7-0.3l-1.1-2.4l-1.6-1.2l-1.2-2.5l-2.7,0l-0.6-3.5l-0.2-5l-0.1-8.2l-0.8-6.9l1.2-1.5l1.2,0.2l0.1-1.5l-4.1-4.9
			l1.3-1.9l0.9,0.4l1.9-0.9l-1-1.9l3.1-2l1-1.5l0-1.4l-1.3-0.4l-1.3-1.8l0.4-2.4l2.7-3.5l0.5-0.8l0.7-2.3l-0.3-2.9l0.7-5.9l2.6-2.9
			l0.9-0.4l3.9-0.3l1.8-2l2.4-0.9l5-4.2l1.3-2.7l0.5-3l1.3-3.9l-0.7-2.4l1.9,0.2l2.2,1.4l1.7-0.4l3.4,0.1l8.1-0.8l2.2,3.3l1.7,0.1
			l5.4-0.7l4.4,0.7l3.1,0.2l1.3,0.9l2.2,0.6l2.4,1.1l3.5,0l7.6,0.8l3.8,0.7l0,2.2l3.3-1.8l3.4,0l4.1-0.7l2.9-0.8l2.8-1.6l3.4-2.9
			l1.3-2.8l0.3-1.9l-0.9-6.7l0.9-4.5l2-0.7l1.1-0.9l4.8,5.5l3.2,1.1l1.9-0.9l0.7-1.1l1.2-0.2l5.6,3.9l4.6,2.3l7.8,1.8l1.8,1
			l-0.7,5.3l-19.8,7.3l0.2,1.5l1.4,0.5l-1,1.4l-1.9-0.4l-2.3,0.5l-1.3-1.6l-1.8-0.6l-1.7,2.3L294,283l-1.6,4.8l0,0.6l-10.6-0.3
			l-2.7-1.8l-2,0.2l-1,1.1l-1.3-0.4l-2.8-0.2l-4.6,1.5l-1.1,1.1l-1.2-0.3l-2.7,0.2h0l-4-0.5l-9.5,3.1l-2.4,0.1l-1.4,0.7l-1.1,1.5
			l-1.5,1.2l-1.1,1.5l-3.1,2.6l-3.4,1.3l-0.7,1.8l0.9,0.8l-1.3,1.1l-0.7,1.7l0.7,2.1l-0.7,0.4l-1.4,3.1l1.4-0.4l2.1,0.1l1.9-0.7
			l2.7,0.4l2.7,1.9l1.1,0.4l3.4,2.7l0.4,1.5l0.2,3.9l-0.7,1.3l-2.3,1.3l-0.8,1.6l2.5,2.7l3.1,1l0.7,0.7l0.8,8.8l0.7,2.4l-0.6,0.8
			l-5.8,2.7l0.9,3.7l-0.3,1.7l1.7,1l3.1,2.9l3.6,0.9l0.3,1.8l0.2,4l0.9,3.9l1.4,0.8l0.1,1.6l2.3,0.7l0.1,1.2l1.3,1.7l1-0.7l0.8,1.2
			L262,372.4"/>
		
			<path vector-effect="none" fill="#E9E9E9" stroke="#FFFFFF" stroke-linecap="square" stroke-linejoin="bevel" stroke-dasharray="4,4" d="
			M262,372.4l0.5-0.9l-0.8-1.2l-1,0.7l-1.3-1.7l-0.1-1.2l-2.3-0.7l-0.1-1.6l-1.4-0.8l-0.9-3.9l-0.2-4l-0.3-1.8l-3.6-0.9l-3.1-2.9
			l-1.7-1l0.3-1.7l-0.9-3.7l5.8-2.7l0.6-0.8l-0.7-2.4l-0.8-8.8l-0.7-0.7l-3.1-1l-2.5-2.7l0.8-1.6l2.3-1.3l0.7-1.3l-0.2-3.9l-0.4-1.5
			l-3.4-2.7l-1.1-0.4l-2.7-1.9l-2.7-0.4l-1.9,0.7l-2.1-0.1l-1.4,0.4l1.4-3.1l0.7-0.4l-0.7-2.1l0.7-1.7l1.3-1.1l-0.9-0.8l0.7-1.8
			l3.4-1.3l3.1-2.6l1.1-1.5l1.5-1.2l1.1-1.5l1.4-0.7l2.4-0.1l9.5-3.1l4,0.5h0l2.7-0.2l1.2,0.3l1.1-1.1l4.6-1.5l2.8,0.2l1.3,0.4
			l1-1.1l2-0.2l2.7,1.8l10.6,0.3l0-0.6l1.6-4.8l5.3-5.3l1.7-2.3l1.8,0.6l1.3,1.6l-0.9,5.4l0.3,3l0.9,4.8l-0.3,6.3l-11.2,0.3l-1.2,3
			l-1.6,3.1l-2.9,6.7l-0.1,3.5l0.2,2.7l-1.3,0.7l2,3.4l3.5,2.4l2.3,0.5l0,3.1l0.5,0.7l0.2,2.4l2.6,2.8l5.4,3.3l2.4,2.7l0,0.9
			l-1.1,2.3l-1.7,1.7l0.4,2.6l0.6,1.1l1.2,0.5l2.1,1.8l1.7,2.2l2.2,1.5l0.9-0.4l1.7-2.1l1.5-2.8l1.3-0.6l4.2,1.9l2,1.4l1.3,0.2
			l3.5-0.4l3.3,0.1l0.6,0.7l2.5,5.6l-2.8,3.5l-1.7,4.1l-1.1,4.5l-0.7,4.2l-12.3-0.1l-7.9,0l-2-0.1l-15.9,0l-15.5-0.1l-4.7-0.2
			L262,372.4"/>
	</g>
	<g transform="matrix(0.999067,0,0,0.999067,0,21.3683)">
		
			<path vector-effect="none" fill="#010101" fill-opacity="0" stroke="#FFFFFF" stroke-width="2" stroke-linecap="square" stroke-linejoin="bevel" d="
			M219.2,131.6l-1.2,0.1l0.9-4.2l0-4.3l0.4-2.7l0.4-6.6l-0.2-2.9l0.8-4.5l1.1-0.8l1.4,1.3l2.5-3l1.6-1.3l-1.1-1.1l0.2-2.1l-0.4-3.4
			l0.1-1.8l1.2-2.2l1.6-1.4l1.8-0.2l0.9,0.7l1.5-0.3l1.5-1.9l0.5-2.2l1.6-2.3l-1.5-2.3l0.4-2.5l1.5-1.9l0.6,0l1.4-1.8l-0.2-4.1
			l0.6-1.5l1.3-0.2l0.6-1l0.2-4.4l0.8-1.6l1.5-1l0-2.8l1.1-1.3l2.9-1l3.7,1.3l2.3-0.3l1.7-1l1.4-1.7l1.5-0.7l2.9-0.5l1.4,0.8
			l0.3,2.9l2.2,1.4l2.7,3.3l1.9-0.3l2.8-2.3l1.8,0.4l2.2,1.8l2.1-0.7l3.2-2.4l2.4-0.4l2.5,0.2l0.8,0.5l0,1.5l1,0.3l2.1-1.3l2.2-0.2
			l2.3,1.3l2.3,0.6l3.5,0.2l2.5,1.7l1.6-0.6l4.7-0.5l1.7-0.9l0.4-1.1l-0.5-1.7l1.2-0.9l2.4-0.2l2,1.4l2,0.4l4.3-1l0.7-0.7l-1.1-1.9
			l0.4-2.1l1.1-0.8l2.4-0.7l1.1-1.3l1.4,0l2.1,1.9l0.7,2.7l1.9,1.3l1.8,0.2l2.6-1.5l0.9-1l3.1-0.2l1.5-1.3l2.4-0.2l2.4,0.8l1.6,0
			l1.3,1.3l1.4,0.6l2.9-1.8l2.2-0.9l1.5-1.4l2.7,1.1l2.4,0.3l2.7-2.2l0.7-1.3l-1.2-2.1l-2-0.3l-0.6-0.9l0.4-1.5l2.2-2.5l1.6,0.4
			l1,1.1l0.5,1.9l1.2,1.8l2,0l3.1-1.3l0.7-1.3l0.1-3.4l1.8-0.9l3,1.5l-0.3,2.8l1.2,1.8l1,0.1l1.9-1.8L386,46l1.5,0.1l1-2.7l1.1-0.1
			l1.4,2.4l3.8,0l0.3-1.4l1.3,0l0.9,1.3l1.3,0.9l1.3-2.1l1.1-0.4l1.2,1l0,1.7l2.3-0.3l0.5-1.5l1.2,0.8l2.1-0.7l5.2-0.4l0.3,1.3
			l-1.2,0.6l1.1,1.4l1.2-1.1l1.6,0l1.1,1.1l1-0.6l4.1,0.2l0.6-2.3l4.9,3.1l2.4-1.3l3,0.2l1.2-1.9l1.8-1.1l1.5,2.1l2-0.4l1.9,0.4
			l3.1-0.9l1,1.1l-0.1,3.7l-0.5,2.6l0.9,0.7l2.7-0.6l1.5-1.5l1.6,1.1l-0.7,2.8l1.2,2.3l1.2-1.5l1.5-0.4l1.8,0.3l2.2,1.6l0,2.1
			l3.2,1.5l1.5,2l1,0.3l0.7,2.1l2.5,1l0.6,1.6l3.8,2.6l0.4,0.9l2.6,2.5l1.6,2.9l3.1-0.3l1.1,0.9l1.7,0.4l1.4,2.3l-0.4,0.9l-2.1-0.5
			l-0.8,0.4l0.4,3.4l1.8-0.2l1.7,0.9l-1.5,1.2l-0.6,1.4l-0.2,2.4l3.2-1.3l2.4,0.9l0.5,3l1.8,0.7l1.5-0.7l1.4,1.6l-1.1,2.2l1.3,3.4
			l0.9,0.2l1.3,2l1.9-2.4l3.6-1.8l1.6,0.4l2.6-0.8l3.6-3.2l1-0.2l0.6,1.5l-1.8,2.1l0.2,1.3l1.1,1.9l2.3,2.3l1.3,0l1.8-1.5l2.6,0.3
			l5.3-2.7l2-0.4l4,1.1l0.8-0.1l2.8-2.3l1.3,1.8l-2.3,0.6l-1.3,1l-0.5,1.6l0.5,1.3l2.4,0.8l1-2l1.3-1.1l0.8,0.1l1.3,2.6l5.5,2.3
			l1.3,0.4l0.7,1.3l-0.4,1.6l0.2,2l1.2,1.4l-0.1,2.8l1.1,2.1l1.5,1.7l2.8,1.3l-0.2,1.4l-1.9,1.8l1.3,1.4l2.2,1.4l0.4,1.2l-0.4,3.4
			l1.4,2.1l1.7,1.1l0,1.6l-1.9-0.2l-0.3,1.5l2.4,2.5l2.7,1.9l3.7,3.8l-0.9,1.9l-1.3,0.6l-2.1-0.5l-0.5,1.5l2.9,5.1l1.1,0.3l1.7-1.7
			l2.2,0l4.1,2.3l5.1,2.1l-0.4,1.2l0.8,2.3l-1.1,2.1l-0.7,2.8l0.2,0.8l4.3,1.9l2,0.2l2.7-0.5l1.5-1.4l4.5-0.5l-0.4,1.3l0.4,1.7
			l-0.1,2.3l1.1,0.8l1.9-0.4l0.6,1.3l-1.7,1.5l-0.2,5.6l1.8,2.1l1.8,0.8l3.2,0.5l3.8,2.6l1.3,3.6l-1.9,2.7l-1.4-0.2l-1.3-1.3
			l-1.5,0.1l-0.6,1.3l0.8,1.2l2.5,1.4l1.1,1.3l0.5,1.6l1.1,0.1l1.9-1.5l1.7-0.2l1.4,0.8l0.8,2.3l-0.8,2.4l0.5,1.5l3.4,1.3l1.4,1
			l2.2,2.3l2.8,1.4l0.5,0.8l2.4,3.5l4.2,5.7l0.4,1.8l1.6,2.3l0.6,3.4l1.6,2.8l-1.1,3.1l-5.7,18.5l-7,9.9l-2.6,1l-5.2,2.4l-16,2.5
			l-9.2-2.3l-21.7-3.2l-11.1,8.8l-8,6.1l-6.3,5.1l-3.1,2.4l-12.4-0.3l-16.8-0.2l-5.1-0.1l-10.6-5.2l-5.4-2.5l-7.8-2.5l-10-3.5
			l-4.4-1.3l-4.6-1.7l-2-0.5l-0.6-1.2l-2.7-1.4l-0.6-1.4l-1.7-1.2l-2-3.8l-1.9,1.1l-1,0.1l-2,1.2l-2-0.2l-3.5,3.4l-3.7,4l-7.8,2.9
			l-2,0.3l-5.6,1.3l0.2-4.2l-20.3-6.1l-3-0.8l-6.4-7.7l-8.5,5.4l-2.7,1.9l-0.7,2.5l-6.5-1l-15.8-3.1l-7.6-1.4l-3.8-2.3l-10.8-4.1
			l1.4-10.1l-0.2-0.7l-3.2-1.2l-2.2-0.5l-1.3,0.2l-4.4,1.6l-5.3-3.4l-1.7-0.9l-2.2-0.4l-3.7-0.3l-1.6-0.7l-4.1-3l-3.1-1.4l-2.1-1.5
			l-1.2-2.6l-2-1.6l-0.4-1.4l0.2-1.7l-9.1-0.1l-0.8,1.2l-2.6,1l-6.7,0.5l-0.8,1.7l-8.2-0.7l-3.6,0.6l-2.9-0.6l-4-0.2l-0.2-3.8
			l-0.9-2.5l-0.9-3.4l0.1-4.1l-1.4-1.4l-2-1.3l-0.5-0.4l-0.5-1.2l0.1-2.3l-1.2-2.4l-1.6-2.1l-0.5-2.3l0.3-2.4l-1.4-3.2l-1.5-0.8
			l-1,0.3l-0.5,2.1l-1.2,0.2l-2.4-2.3l1.2-2.4l-1.8-3.1l-0.9-0.6l-5.9,0.1l-3.7-3.7l-1.5,1.3l-3.7,4.1l-1.5,2.3l-0.1,1.7l-1.2,0.1
			l-2.1,3.8l-1.8,3.7l-1.1,1.6l-1.8,1.7l-2.2,2.7l0.3-4.2l-0.7-1.9l-1.1-0.7l-0.5-1.8l-3.5-2.4l-1.8-2l-1.7-1.1l-1.3-1.8l-9.7-4.1
			l3.4-5.4l3-5.4l9.4-13.7l4.6-7l3.9-6.7l3.9-8.5l1.9-7.2L219.2,131.6"/>
		
			<path vector-effect="none" fill="#010101" fill-opacity="0" stroke="#FFFFFF" stroke-width="2" stroke-linecap="square" stroke-linejoin="bevel" d="
			M282.7,495.2l-6.8,0.8l-9-3.2l-3.2,0.1l-9.9,2.3l-4.2-1.3l-7.1,3.1l-4.3,2.3l-3.3,2l-3.5,1.7l-0.6,1.4l-3.9-0.4l-7,0.8l-3.1,0.8
			l-3.3-1.1l-6.7,1.4l-3.1-1.3l-5.4,0l-3.4,2.3l-1.4-2l-0.4-2l-1.6-1.7l-2.2-1.7l-1.8-5.8l-0.2-2.9l1.3-3.4l1.3-2l1.8-1.4l-0.2-1.7
			l-1.3-0.8l0.2-1.9l-1.1-6.6l-0.1-2.8l0.7-2.3l-1.4-0.7l0.3-3.3l-0.1-2.1l-0.6-1.8l0.8-5.5l1.1-4.4l0.6-1.8l0.8-5.1l0.7-1.6
			l1.1-7.4l-0.2-4l-0.6-2l2-1.5l-0.6-1.3l-0.2-2.3l2.8-1.2l0.7-1.8l-0.8-1.2l2.3-1.7l14.5,0.4l1.7-0.1l15,0.2l3.9-0.1l14.7,0.3
			l13-0.2l9.6,0.3l5.2-0.6l5.9,0.3l9.6,0.2l0-5.5l-0.2-5.6l0-7.5l0.3-1l7.2,0l2.1-0.4l3.2-1.8l5.6,1.8l2,0.4l2.9,0l2.7-0.9l4.5-3.7
			l2.1-0.1l5.2,2.2l0.7,0l6.2,2.1l4.3-0.5l0,7l-1.7,3l0.4,4.9l2.1,2l2,1l1.5-0.1l4.5,1.7l0,3.2l1.6,2.7l1.5,4.9l-0.4,2.8l1.9,1
			l2.7,1l2.7,1.9l0.4,2l-1.1,2.1l0.9,2.9l4.9,5.5l-0.4,1.9l0.1,6.4l-2.4,4l0.1,1.4l-1.9,3.1l1.1,2.4l0.3,1.8l2.1,1.7l-4.3,0
			l-2.1,0.5l-5.9,2.4l-3.3,2.1l-4,1.8l-3.1,1.1l-3.4,3.7l-3.7,2.9l-2.6,1.7l-6.4,2.7l-11.3,5l-2.3,1.3l-6.7,3l-7-1.1l-12.5-1.5
			L282.7,495.2"/>
		
			<path vector-effect="none" fill="#010101" fill-opacity="0" stroke="#FFFFFF" stroke-width="2" stroke-linecap="square" stroke-linejoin="bevel" d="
			M152.3,265l-0.8-1.9l-1.7-2.9l-0.7-0.4l-2.2-2.9l-5.1-4.1l-2.9-1.4l-0.9,0.2l-6.8-2.9l-3.1-0.5l-2.1,0.1l-2.6,1l-1,1.3l1.1,1.8
			l-1.1,2.3l1,0.9l-1.4,1.2l-1-0.1l-0.4-1.3l-2.5-0.6l-0.3-2.1l-3.2-2.7l-0.5-1.3l-1.9-2.1l4-0.5l1.6-0.6l2.8-0.4l4.7-1.7l11.9-5
			l11.7-5.8l4.8-2.6l1.4-3.1l1.8-2.6l7.4-8.4l1.6-1.5l3.7-4.4l4.2-4.8l3.9-5.4l1.9-2.2l3.6-5.1l4.5-7.1l9.7,4.1l1.3,1.8l1.7,1.1
			l1.8,2l3.5,2.4l0.5,1.8l1.1,0.7l0.7,1.9l-0.3,4.2l2.2-2.7l1.8-1.7l1.1-1.6l1.8-3.7l2.1-3.8l1.2-0.1l0.1-1.7l1.5-2.3l3.7-4.1
			l1.5-1.3l3.7,3.7l5.9-0.1l0.9,0.6l1.8,3.1l-1.2,2.4l2.4,2.3l1.2-0.2l0.5-2.1l1-0.3l1.5,0.8l1.4,3.2l-0.3,2.4l0.5,2.3l1.6,2.1
			l1.2,2.4l-0.1,2.3l0.5,1.2l0.5,0.4l2,1.3l1.4,1.4l-0.1,4.1l0.9,3.4l0.9,2.5l0.2,3.8l-3.9,1.1l-1.5-0.1l-1.8-2.4l-2.8-1.4l-5-1.3
			l-2.9-1.3l-3.8-1l-4.8-0.5l-3.2,0.6l-1.6,0.6l-2.3,1.5l-2.4,0.4l-5.7,2.1l-4.1,0.9l-4.1,1.1l-3.5,3.1l1.9,1.7l1.5,2.7l1.3,1
			l1.5,1.9l0.2,2.5l-2.1,1.7l-0.3,1.2l2.6,1.9l1.6,2.4l0.4,3.4l-0.3,6.3l-1.5,2.2l0,2.4l3.3,2.9l2.5,0.9l4.2-0.2l0.7,2.4l-1.3,3.9
			l-0.5,3l-1.3,2.7l-5,4.2l-2.4,0.9l-1.8,2l-3.9,0.3l-0.9,0.4l-2.6,2.9l-0.7,5.9l0.3,2.9l-0.7,2.3l-0.5,0.8l-2.7,3.5l-0.4,2.4
			l1.3,1.8l1.3,0.4l0,1.4l-1,1.5l-3.1,2l1,1.9l-1.9,0.9l-0.9-0.4l-1.3,1.9l4.1,4.9l-0.1,1.5l-1.2-0.2l-1.2,1.5l-0.9-3.7l-1.1-3.3
			l-2.3-2.5l-3.2-2.5l-0.9-1.7l-1.4-0.6l0.1-3.2l-1.3-3.3l-1.9-1.9l-1.6-2.2l-1.4-0.5l-0.3-2.7l0.3-2.4l-0.8-2.4l-2.7-4.3l-4.9-3.8
			l-2-1.1l-2.9-0.7l-0.4-1.6l-0.9-0.3l-0.8-1.6l-1.2-1.1l0-1.3l-2-4.7l-2.9-2.4L152.3,265"/>
		
			<path vector-effect="none" fill="#010101" fill-opacity="0" stroke="#FFFFFF" stroke-width="2" stroke-linecap="square" stroke-linejoin="bevel" d="
			M640,414l-0.1-0.1l-0.8-0.2l-3.2,1.5l-2.4-0.1l-1.4-1.9l-2.8,0.7l-1.1,0.7l-2.7-0.6l-0.7,1.5l-1.6,0.1l-1.4,0.9l-0.9,2.9l0.3,2
			l-1.4,0.9l-1.1,1.5l-0.3,1.3l-2,0.1l0.1,1.9l-1.1,0.4l-1.9-0.9l-1.5,0.6l0.1,1.9l-1.6,0.4l-0.4,1.7l-3.5,0.9l-0.8,3.6l-1.9-2.3
			l-1.1,1l-1.9-2.1l-3.5-2.3l-1.4,0.6l-1-2l-1.3-0.2l-1.6-1.6l-1.7,1.2l-0.9-1l-3.9,1l-1.2,1.5l-2.1-0.1l-0.7-0.7l-1.5,1.3l-1.4,2.3
			l-0.9,0.3l-1.5-1.3l-3.5-1.4l-2.5,0.6l-1.2-1.7l-0.9,1l-2.4,0.4l-0.7,0.9l0.3,1.1l-2.8,1.9l1.9,1l2.4,3l0.4,1.3l1.3-0.3l1.5,1.5
			l0.3,1.2l1.8,1.6l0.4,1.9l-1.4,1.6l-1.4,0.8l-0.3,1.8l2.9,1.6l-0.8,1.4l0.3,1.2l2.6,0.8l2.3,0l0.5,1.6l-1.2,0.4l0.1,1.6l-0.9,1.5
			l0,1.5l1.3,4.7l1.6,2L575,470l-0.7,4.1l-3.4-0.3l-3.1,0.6l-1.8-0.6l-0.5-1.1l-1.1,0.2l-0.9,1.1l-1.1-1l-3.1,0l-1.6-0.5l-0.6,1.2
			l-3.6,0.4l-2.1-1l-0.6-0.8l-14.5-1.6l1.2-0.9l1.3-2.7l0.4-3.7l-0.4-2.2l0.4-0.6l-0.7-2.4l0.4-1.5l-1.2,0l-0.6-2l1.3-0.7l1.6-2.1
			l-1.4-2.1l0.1-3l-1.6-0.1l-2.3-1.4l0-1.9l0.7-1.7l-1.8-0.1l0.6-3.7l-0.7-0.9l1-1.1l-1.3-1.8l-1.9,1.2l-0.3-0.8l0.4-2.3l-4-3
			l-1.1-1.7l0-0.1l0.1-0.1l0,0l-0.7-1.7l-1.7-1.6l0-1.5l-1.8-0.7l0.5-2.7l-0.5-1.8l0.9-1.4l0.5-2.4l-0.1-1.2l-0.9-0.9l-0.4-2
			l-1.4,0.6l-1.6-0.3l-0.2-1.4l0.4-2l-1.2-0.6l-2.8,0.5l-1.1-1.4l0-1l1.2-1l1.3-2.7l-0.8-1l-2.2,1l-1.1-1l2.2-2.7l0.8-1.6l-1.9,0
			l-5.2,1.4l-2.5-0.1l-0.8-0.5l1.6-1.4l1.1-1.6l-0.9-2.2l0-1l2.5-1.7l1.7-1.7l-2.8-1.5l-2.5-0.6l-2.4,2l-1.6-0.5l-0.2-1.3l1-2.4
			l-0.1-1.5l1.3-2.6l-1.9,0.1l-1.7-0.4l-1.1,3l0,1.6l-3-0.8l-0.9-1.1l-2-3.6l-1.3-0.8l-2.1-0.1l-4.2-1.8l-1.8-0.1l-1.6,0.5l-3.7,2.5
			l-2.8,0.1l-1.9-0.5l-1.8,0.1l-2.8,0.8l-2.1,1l-3.3,0.7l-2.7,1.6l-2.1,1.6l-2.6,2.9l-1.9-0.1l-3.9,0.9l-2.8,1.2l-3.1-1.3l-2.1-0.3
			l-2.3-1.9l-3.7-1.6l-1-1.6l-3.4-2.5l-0.2-2.3l-0.9-3l-1.5-2.3l-1.3-1.4l-4.8-2.8l-3.2-0.6l-3.4-0.2l-3.1,0.5l-3.6,2l-2.5,1.9
			l-1.5-0.1l-7.1-4l-0.5-4.1l-0.7-2.9l-1.7-3.2l-2.2-1.9l2.2-3.5l1.2-1.2l4.7-0.1l3.7-0.5l3-7.3l1.6-0.7l3.3-2.4l4.5-2.7l2.1-6.3
			l-1.3-9.7l1-5l-1.2-13l-4.7-4.5l0-1.2l1-16l0.4-7.1l5.6-1.3l2-0.3l7.8-2.9l3.7-4l3.5-3.4l2,0.2l2-1.2l1-0.1l1.9-1.1l2,3.8l1.7,1.2
			l0.6,1.4l2.7,1.4l0.6,1.2l2,0.5l4.6,1.7l4.4,1.3l10,3.5l7.8,2.5l5.4,2.5l10.6,5.2l5.1,0.1l16.8,0.2l12.4,0.3l3.1-2.4l6.3-5.1
			l8-6.1l11.1-8.8l21.7,3.2l9.2,2.3l16-2.5l5.2-2.4l2.6-1l7-9.9l5.7-18.5l1.1-3.1l-1.6-2.8l-0.6-3.4l-1.6-2.3l-0.4-1.8l-4.2-5.7
			l-2.4-3.5l0.3-1.5l1.3-1.1l1-0.1l5.3,2.4l1.6,1l4.6,4.5l6.3,1.8l2.4,1.7l1.1,1.4l0.4,1.5l0.7,5.3l0.4,1.1l-0.3,2.4l1.7,1.1
			l3.5,3.3l1.4,0.4l1.6,1.2l1.6,0.5l2.2-0.1l1.4,0.6l4.5,5l4.2,1.3l0.6,2.8l1.8,0.4l0.8,2.2l-0.4,1.2l1.2,0.9l1.9-0.1l2.5,1.7
			l-1.8,1.1l0.2,1l2.6,0.6l0.6,2.2l-0.6,1.6l-2.4,0.9l0.1,2.8l-1.1,1.4l-0.3,1.7l-2.3,0.3l-0.9,1.2l0.4,2.2l-0.7,1.6l0.3,2.3l2,1.1
			l-0.8,2l1.8,2.3l-1.3,1.8l0.2,1.8l2,1l1.1-0.5l1.6,1.7l2.5-0.2l0.4,1.3l1.2,0.5l1.4-0.7l1,1.3l-1,1.4l0.7,0.7l0.1,3.8l2,1.1
			l2.3,0.1l1,0.8l2,0.1l3,7.7l1,0.9l0.1,1.6l1.4,0.8l-0.2,3.9l-1.1,2.6l0.4,0.9l0.2,2.9l-1.4,0.2l0.2,2.4l-1.5,1.5l0,3.4l0.6,2
			l-0.5,1.6l1.9,1.1l0.2,0.9l6,4.4l-1,6.7l-0.5,0.6l-0.5,5.2l-2.4,1.4l-1.4,2.4l-5.2,4l-2.4,0.9l-1.2,0.9l0.5,1.4l2,2.5l0.9,1.9
			l0.3,1.8l-0.2,2l0.5,1.1l2.6,2.6l1.3,0.8l0.2,2.3l1.6,0.8l1.3,2.6l2,1.5l2,0.5l1.9,2.1l1.5,0.6l0.9,1.6l2.3,1.2l0.7,2.7l-1,1.5
			l-1.4,3.7l0,0.7l-2.7,1.3l-1.2,0.1l-1.4,0.9l-1.8-0.1l-0.8,1.5l-2.5,2.4l-2,0.4l-0.8,1.5l-1.7,0l-0.6-1.5l0.8-1.6l-0.4-0.6l0-2.6
			l-2.7,1.5l-1.8-1.2l-3.7-0.7l-1.7-1.6l-1-0.1l-1.7-2.5l-1.4-0.3l-6.4-3.7l-2.1-0.7l-0.5,1.2l-0.2,2.4l-1.2,1.3l0.1,2.3l3.6,5.3
			l0.6,0.6l-1,1.8l-2.9,1.1l-3-0.2l-2-0.4l-0.4,2.7l-1.3,1.8l-0.1,1.6l-1.4,0.3l-1.2-1.8l-2.9-1.8l-3,1.2l-1.1-0.4l-0.5,1.4
			l-1.7,0.5l-1.9,1.4l-0.6,1.4l-1.3,1.5l-0.7,2.3L640,414"/>
		
			<path vector-effect="none" fill="#010101" fill-opacity="0" stroke="#FFFFFF" stroke-width="2" stroke-linecap="square" stroke-linejoin="bevel" d="
			M363.6,470l-2.1-1.7l-0.3-1.8l-1.1-2.4l1.9-3.1l-0.1-1.4l2.4-4l-0.1-6.4l0.4-1.9l-4.9-5.5l-0.9-2.9l1.1-2.1l-0.4-2l-2.7-1.9
			l-2.7-1l-1.9-1l0.4-2.8l-1.5-4.9l-1.6-2.7l0-3.2l-4.5-1.7l-1.5,0.1l-2-1l-2.1-2l-0.4-4.9l1.7-3l0-7l4.2-0.7l2.9-1.8l4.5-3.9
			l0.8-1.5l1.3-4.6l1.2-5.7l1.4-0.8l4.2-3.7l0.4-1.2l5.4-1.9l1,2.9l1.3,2.1l1.8,2l5.4,4.7l4,2.1l3.6,1.7l2.8,0.9l5.2,0.3l2.1,2
			l1.6,0.9l2.8,0.4l2.8-0.3l1.6,3l1.9,1.9l5.8,2.9l2.4,0.4l4.1-0.3l3.5-1.7l2.4,3.2l4,2.5l2.9,0.5l3.2,0l2.2,3.1l3.5,2.5l1.5,0.8
			l3.3,1.1l1,0l5.2-1l1.2,0.1l2.3-0.6l1.3,1.5l1.4,0.9l2.6,0.1l3.6-1.2l1.6,0.8l2.7,0.1l2.4-2.2l0.4-1.3l0-2.7l4.4-0.9l0.9-0.4
			l3.3,0.3l3-0.3l5.6-3.3l3.5,0.5l2.4,0.1l3.6-0.7l2.2-1.2l2-2.1l2-3.5l0.8-3.1l0-2.7l-0.6-1l-1.9-1.2l-2.2-4.1l-2.4-1.4l3,0.8
			l0-1.6l1.1-3l1.7,0.4l1.9-0.1l-1.3,2.6l0.1,1.5l-1,2.4l0.2,1.3l1.6,0.5l2.4-2l2.5,0.6l2.8,1.5l-1.7,1.7l-2.5,1.7l0,1l0.9,2.2
			l-1.1,1.6l-1.6,1.4l0.8,0.5l2.5,0.1l5.2-1.4l1.9,0l-0.8,1.6l-2.2,2.7l1.1,1l2.2-1l0.8,1l-1.3,2.7l-1.2,1l0,1l1.1,1.4l2.8-0.5
			l1.2,0.6l-0.4,2l0.2,1.4l1.6,0.3l1.4-0.6l0.4,2l0.9,0.9l0.1,1.2l-0.5,2.4l-0.9,1.4l0.5,1.8l-0.5,2.7l1.8,0.7l0,1.5l1.7,1.6
			l0.7,1.7l0,0l-0.1,0.1l0,0.1l1.1,1.7l4,3l-0.4,2.3l0.3,0.8l1.9-1.2l1.3,1.8l-1,1.1l0.7,0.9l-0.6,3.7l1.8,0.1l-0.7,1.7l0,1.9
			l2.3,1.4l1.6,0.1l-0.1,3l1.4,2.1L538,454l-1.3,0.7l0.6,2l1.2,0l-0.4,1.5l0.7,2.4l-0.4,0.6l0.4,2.2l-0.4,3.7l-1.3,2.7l-1.2,0.9
			l-1.6-0.2l-28.1,0.1l-24.7,0.2l-11.4,0l-16.4-0.4l-24-0.1l-13.4,0.1l-11.4,0.2l-11.5,0l-16.2-0.4l-0.9-0.4L363.6,470"/>
		
			<path vector-effect="none" fill="#010101" fill-opacity="0" stroke="#FFFFFF" stroke-width="2" stroke-linecap="square" stroke-linejoin="bevel" d="
			M217,263.2l-4.2,0.2l-2.5-0.9l-3.3-2.9l0-2.4l1.5-2.2l0.3-6.3l-0.4-3.4l-1.6-2.4l-2.6-1.9l0.3-1.2l2.1-1.7l-0.2-2.5l-1.5-1.9
			l-1.3-1l-1.5-2.7l-1.9-1.7l3.5-3.1l4.1-1.1l4.1-0.9l5.7-2.1l2.4-0.4l2.3-1.5l1.6-0.6l3.2-0.6l4.8,0.5l3.8,1l2.9,1.3l5,1.3l2.8,1.4
			l1.8,2.4l1.5,0.1l3.9-1.1l4,0.2l2.9,0.6l3.6-0.6l8.2,0.7l0.8-1.7l6.7-0.5l2.6-1l0.8-1.2l9.1,0.1l-0.2,1.7l0.4,1.4l2,1.6l1.2,2.6
			l2.1,1.5l3.1,1.4l4.1,3l1.6,0.7l3.7,0.3l2.2,0.4l1.7,0.9l5.3,3.4l4.4-1.6l1.3-0.2l2.2,0.5l3.2,1.2l0.2,0.7l-1.4,10.1l10.8,4.1
			l3.8,2.3l7.6,1.4l15.8,3.1l6.5,1l0.7-2.5l2.7-1.9l8.5-5.4l6.4,7.7l3,0.8l20.3,6.1l-0.2,4.2l-0.4,7.1l-1,16l0,1.2l4.7,4.5l1.2,13
			l-1,5l1.3,9.7l-2.1,6.3l-4.5,2.7l-3.3,2.4l-1.6,0.7l-3,7.3l-3.7,0.5l-4.7,0.1l-1.2,1.2l-2.2,3.5l-1.3-0.8l-3.6-1.6l-4.4-1
			l-2.7-0.1l-2.5,0.6l-2.2-0.7l-7.2-2.7l-4.5,1.7l-2,0.5l-9.7,6l-2.5,0l-3.4-2.9L345,352l-2.1-0.2l-2.3,0.3l-4.9,2.1l-2.7,2.3
			l-2.8,3.5l-1.7,4.1l-1.1,4.5l-0.7,4.2l-12.3-0.1l-7.9,0l-2-0.1l-15.9,0l-15.5-0.1l-4.7-0.2l-6.4,0l-17.8-0.2l-15.2,0l-6.9-0.2
			l-4.6-1.7l0.6,1.8l-4.3-0.1l-0.1-1.2l-1.3-0.3l-1.6-2.5l-4.2-3l-1.5-3.3l-0.7-2.2l0.7-3l-5.9-4.3l-0.7-0.3l-1.1-2.4l-1.6-1.2
			l-1.2-2.5l-2.7,0l-0.6-3.5l-0.2-5l-0.1-8.2l-0.8-6.9l1.2-1.5l1.2,0.2l0.1-1.5l-4.1-4.9l1.3-1.9l0.9,0.4l1.9-0.9l-1-1.9l3.1-2
			l1-1.5l0-1.4l-1.3-0.4l-1.3-1.8l0.4-2.4l2.7-3.5l0.5-0.8l0.7-2.3l-0.3-2.9l0.7-5.9l2.6-2.9l0.9-0.4l3.9-0.3l1.8-2l2.4-0.9l5-4.2
			l1.3-2.7l0.5-3l1.3-3.9L217,263.2"/>
		
			<path vector-effect="none" fill="#010101" fill-opacity="0" stroke="#FFFFFF" stroke-width="2" stroke-linecap="square" stroke-linejoin="bevel" d="
			M574.3,474.1l0.7-4.1l2.8-2.5l-1.6-2l-1.3-4.7l0-1.5l0.9-1.5l-0.1-1.6l1.2-0.4l-0.5-1.6l-2.3,0l-2.6-0.8l-0.3-1.2l0.8-1.4
			l-2.9-1.6l0.3-1.8l1.4-0.8l1.4-1.6l-0.4-1.9l-1.8-1.6l-0.3-1.2l-1.5-1.5l-1.3,0.3l-0.4-1.3l-2.4-3l-1.9-1l2.8-1.9l-0.3-1.1
			l0.7-0.9l2.4-0.4l0.9-1l1.2,1.7l2.5-0.6l3.5,1.4l1.5,1.3l0.9-0.3l1.4-2.3l1.5-1.3l0.7,0.7l2.1,0.1l1.2-1.5l3.9-1l0.9,1l1.7-1.2
			l1.6,1.6l1.3,0.2l1,2l1.4-0.6l3.5,2.3l1.9,2.1l1.1-1l1.9,2.3l0.8-3.6l3.5-0.9l0.4-1.7l1.6-0.4l-0.1-1.9l1.5-0.6l1.9,0.9l1.1-0.4
			l-0.1-1.9l2-0.1l0.3-1.3l1.1-1.5l1.4-0.9l-0.3-2l0.9-2.9l1.4-0.9l1.6-0.1l0.7-1.5l2.7,0.6l1.1-0.7l2.8-0.7l1.4,1.9l2.4,0.1
			l3.2-1.5l0.8,0.2l0.1,0.1l1.4-1.3l0.7-2.3l1.3-1.5l0.6-1.4l1.9-1.4l1.7-0.5l0.5-1.4l1.1,0.4l3-1.2l2.9,1.8l1.2,1.8l1.4-0.3
			l0.1-1.6l1.3-1.8l0.4-2.7l2,0.4l3,0.2l2.9-1.1l1-1.8l-0.6-0.6l-3.6-5.3l-0.1-2.3l1.2-1.3l0.2-2.4l0.5-1.2l2.1,0.7l6.4,3.7l1.4,0.3
			l1.7,2.5l1,0.1l1.7,1.6l3.7,0.7l1.8,1.2l2.7-1.5l0,2.6l0.4,0.6l-0.8,1.6l0.6,1.5l1.7,0l0.8-1.5l2-0.4l2.5-2.4l0.8-1.5l1.8,0.1
			l1.4-0.9l1.2-0.1l2.7-1.3l1.6,0.5l1.2,1.9l1.5,1l0.8,1.7l1.1,0.5l-0.4,1.9l0.8,0.6l3-0.3l0.5-2.2l0.7-0.6l1.7-0.1l1-2.9l1.9-2.9
			l-0.4-1.7l1.7-1.1l2.8,0.3l0.8,1l0.1,1.4l2.9,0.2l2-0.7l2.2,0l0.1,1.4l-1.2,1.5l2,0.6l2.5-0.4l0.1,3.4l0.7,1.1l-0.3,1.4l1.3,0.3
			l0.8,1.1l3,0.8l0,1.2l2,2.5l-1.7,2.1l-0.2,2.3l0.5,1.2l3.4,0.4l0.7,1.3l-0.6,1.5l-1.3,1.2l0.3,1.3l1.4,0.3l0.7,2.6l1.6,1l0.8,1.4
			l3.2,0l1.6,1.2l0.2,1.4l-1,1.2l1.6,2.3l1.1,0.7l-0.5,1.5l1.5,0.5l0,1.5l-1.6,0.7l1.4,2.3l1.3,1l1.1-1.2l-0.4-1.7l1.9,0.1l0.9,1.2
			l0.2,2.6l0.8,1.1l-0.2,1l-4.2,1l-1.3,1.1l1.4,1.3l-1.3,1.2l-0.4,1.5l1,1.5l-1.5,1.8l0.9,0.9l0,1.2l2-0.2l-0.6,1.8l0.7,0.6l-0.1,3
			l-0.3,1.2l1,1.6l-0.9,2.6l-3.7-0.1l-0.9,3.4l-1.7,2.4l0.5,1.3l2.3,0l0.7,1l0.7,3.1l-1.4,0.9l0.3,1.5l1.7,1.3l-1.8,2.6l-2-0.2
			l-0.7,2.2l1.4-0.3l0.7,0.8l0.2,1.7l1.4,0.5l0.7-2.3l1.9,0.7l-0.3,1.4l1.3,0.9l-0.4,2.5l0.6,0.8l1.1-2.6l1.3,1.7l-0.6,1.1l1,1.1
			l-1.3,1.9l-1,0.2l0.9,2.1l-1,1.8l-2.5,0l-1.8-1.8l-2-0.7l-3.4-0.2l-0.9-0.7l-12.2,1.3l-1.1,0.9l-1.7,0.3l-1.5-0.7l-3.9,1l-2.3,2.1
			l-1.3,0.6l-1.2-0.2l-1.5,1.3l-4.1,0.6l-0.9-1l-3.1-1l-2.8,0.2l-1.4,0.8l-1.9-1.7l-3-1.5l-0.9-2.4l-2.3,1.3l-4.3,2.9l-5.1,1.2
			l-2.9-2.6l-2.8,0l-2.3,0.3l-2.9,1.3l-1.9,2.8l-4.1,2.1l-3.3,1.3l-2.3-0.4l-1.6,1l-0.9-0.4l-4.8,1.8l-3.3,1.7l-3.4,1.5l-1-3.1
			l-0.9-0.6l-1.8-3.6l-1.5-1.1l-2.6-0.1l-1.8-1.3l-4.9-1l-2.4,0.4l-2,2.3l-2.4,1.6l-0.9,0.1l-1.9-3.1l-0.1-1.3l-1.4,0.5l-1.4-1.3
			l0-0.9l-1.6-1.1l-4-0.6l-10.5,0.8l1.1-3.6l-2-0.6l-2-1.3l-2.5,0.7l-1.2-1.2l-2-0.5l0.9-1.5l-0.8-0.9l-3.6-1.6l-0.3-2l-1.7-0.3
			l-4.9,1.5l0.2,3.3l-0.5,3.2l-2,0.2l-0.8,0.9l-2.2-0.5l-0.5-0.7l-3-0.3l-2.4,0.2l-1.5-1l0.1-3.9l-0.4-0.8l1.5-1.2l0.1-1.8l1.1-1.7
			l-0.2-2.5l-0.8-1.1l0.3-1.4l-2.8-2l-0.3,0.8l-2.4,0.9l-0.6-0.8L574.3,474.1"/>
	</g>
</g>
<g id="Layer_1">
	<g>
		<rect x="72.4" y="234.4" fill="none" width="73.2" height="45.4"/>
		<text transform="matrix(1 0 0 1 83.741 247.9823)" fill="#848484" font-family="'Arial-ItalicMT'" font-size="18.9258">Dakar</text>
	</g>
	<g>
		<rect x="145.2" y="285.7" fill="none" width="73.2" height="45.4"/>
		<text transform="matrix(1 0 0 1 158.6887 299.2556)" fill="#848484" font-family="'Arial-ItalicMT'" font-size="18.9258">Thies</text>
	</g>
	<g>
		<rect x="219.6" y="257.1" fill="none" width="82.6" height="45.4"/>
		<text transform="matrix(1 0 0 1 225.6785 270.6932)" fill="#848484" font-family="'Arial-ItalicMT'" font-size="18.9258">Diourbel</text>
	</g>
	<g>
		<rect x="169.8" y="349.7" fill="none" width="82.6" height="45.4"/>
		<text transform="matrix(1 0 0 1 185.8493 363.2342)" fill="#848484" font-family="'Arial-ItalicMT'" font-size="18.9258">Fatick</text>
	</g>
	<g>
		<rect x="242" y="371.8" fill="none" width="82.6" height="45.4"/>
		<text transform="matrix(1 0 0 1 249.6673 385.3143)" fill="#848484" font-family="'Arial-ItalicMT'" font-size="18.9258">Kaloack</text>
	</g>
	<g>
		<rect x="327.4" y="325.8" fill="none" width="82.6" height="45.4"/>
		<text transform="matrix(1 0 0 1 336.1097 339.3163)" fill="#848484" font-family="'Arial-ItalicMT'" font-size="18.9258">Kaffrine</text>
	</g>
	<g>
		<rect x="267.4" y="173" fill="none" width="82.6" height="45.4"/>
		<text transform="matrix(1 0 0 1 282.3742 186.5878)" fill="#848484" font-family="'Arial-ItalicMT'" font-size="18.9258">Louga</text>
	</g>
	<g>
		<rect x="481.4" y="217.3" fill="none" width="82.6" height="45.4"/>
		<text transform="matrix(1 0 0 1 493.7493 230.8474)" fill="#848484" font-family="'Arial-ItalicMT'" font-size="18.9258">Matam</text>
	</g>
	<g>
		<rect x="587.2" y="357.1" fill="none" width="82.6" height="45.4"/>
		<text transform="matrix(1 0 0 1 587.2191 370.6955)"><tspan x="0" y="0" fill="#848484" font-family="'Arial-ItalicMT'" font-size="18.9258">Tamba</tspan><tspan x="58.9" y="0" fill="#848484" font-family="'Arial-ItalicMT'" font-size="18.9258">-</tspan><tspan x="0" y="18.9" fill="#848484" font-family="'Arial-ItalicMT'" font-size="18.9258">counda</tspan></text>
	</g>
	<g>
		<rect x="637.7" y="488.5" fill="none" width="106.6" height="45.4"/>
		<text transform="matrix(1 0 0 1 647.86 502.0133)" fill="#848484" font-family="'Arial-ItalicMT'" font-size="18.9258">Kedougou</text>
	</g>
	<g>
		<rect x="402.6" y="465.8" fill="none" width="106.6" height="45.4"/>
		<text transform="matrix(1 0 0 1 431.7195 479.3015)" fill="#848484" font-family="'Arial-ItalicMT'" font-size="18.9258">Kolda</text>
	</g>
	<g>
		<rect x="264.2" y="460.3" fill="none" width="106.6" height="45.4"/>
		<text transform="matrix(1 0 0 1 282.7474 473.8494)" fill="#848484" font-family="'Arial-ItalicMT'" font-size="18.9258">Sedhiou</text>
	</g>
	<g>
		<rect x="154.3" y="465.8" fill="none" width="106.6" height="45.4"/>
		<text transform="matrix(1 0 0 1 163.4476 479.3015)" fill="#848484" font-family="'Arial-ItalicMT'" font-size="18.9258">Ziguinchor</text>
	</g>
	<g>
		<rect x="321.7" y="94.8" fill="none" width="150.8" height="170.8"/>
		<text transform="matrix(1 0 0 1 350.2487 108.3757)" fill="#848484" font-family="'Arial-ItalicMT'" font-size="18.9258">Saint Louis</text>
	</g>
</g>
</svg>
